<?xml version="1.0" standalone="no"?>
<!DOCTYPE svg PUBLIC "-//W3C//DTD SVG 20010904//EN"
 "http://www.w3.org/TR/2001/REC-SVG-20010904/DTD/svg10.dtd">
<svg version="1.0" xmlns="http://www.w3.org/2000/svg"
 width="800.000000pt" height="533.000000pt" viewBox="0 0 800.000000 533.000000"
 preserveAspectRatio="xMidYMid meet">

<g transform="translate(0.000000,533.000000) scale(0.100000,-0.100000)"
fill="#000000" stroke="none">
<path d="M0 5280 c0 -45 3 -50 25 -56 14 -3 37 -3 53 1 25 6 26 5 11 -10 -8
-8 -32 -16 -52 -17 l-37 -1 0 -128 c0 -92 3 -129 13 -132 9 -4 9 -6 0 -6 -10
-1 -13 -42 -13 -172 l0 -171 62 6 c35 3 187 8 338 12 151 3 277 7 280 9 3 2
107 6 230 10 124 3 396 13 605 21 209 7 385 14 391 14 15 0 15 -3 19 -193 4
-168 4 -168 -18 -165 -21 3 -22 9 -23 98 -1 59 -6 96 -13 98 -6 2 -11 16 -11
32 0 22 -5 28 -22 28 -13 0 -30 1 -38 3 -13 3 -15 -16 -18 -124 -2 -96 -6
-127 -15 -124 -8 2 -13 44 -15 140 -4 186 -22 180 -22 -7 l0 -144 -142 -7
c-79 -4 -145 -11 -148 -15 -3 -4 -4 -41 -2 -82 l3 -74 82 2 c104 1 103 1 122
20 9 10 32 19 51 21 l34 3 2 -72 c0 -40 2 -85 3 -100 1 -16 2 -28 1 -28 -1 0
-41 -5 -91 -11 -49 -5 -114 -13 -144 -17 l-54 -7 2 -75 c1 -41 4 -77 6 -80 6
-10 170 5 167 15 -4 12 30 23 74 24 30 1 32 -1 38 -45 10 -77 7 -144 -6 -148
-15 -5 -198 -27 -243 -30 -30 -2 -30 -2 -29 -56 2 -116 -2 -107 57 -109 28 0
65 -3 80 -7 23 -5 29 -2 34 14 5 20 39 32 89 32 23 0 24 -3 26 -80 1 -44 2
-88 2 -97 1 -15 -14 -20 -84 -29 -47 -7 -111 -13 -143 -13 l-58 -1 3 -82 3
-83 90 0 c63 0 89 4 88 12 -2 7 17 12 47 15 58 4 60 1 60 -114 0 -90 11 -84
-165 -93 -60 -3 -113 -9 -117 -13 -3 -4 -4 -39 -1 -78 l6 -71 60 -7 c90 -9
107 -8 107 9 0 11 11 15 39 15 22 0 46 3 55 6 14 5 16 -7 16 -94 l0 -99 -37
-7 c-21 -3 -76 -6 -123 -6 -130 0 -126 3 -123 -88 2 -73 3 -77 25 -78 13 -1
48 -4 79 -8 44 -6 58 -4 69 8 8 11 29 16 61 16 l49 0 2 -62 c1 -35 2 -79 2
-98 l1 -35 -140 -5 -140 -5 0 -80 0 -80 80 -7 c48 -5 83 -4 89 2 6 6 32 10 58
10 39 0 48 -3 48 -17 1 -10 3 -44 6 -76 3 -32 3 -69 0 -83 l-7 -25 -139 7
-140 7 0 -87 c0 -47 3 -86 8 -86 4 0 44 -2 89 -5 48 -3 84 -1 88 5 7 12 95 14
95 3 0 -5 3 -49 6 -100 l6 -91 -58 -4 c-33 -2 -64 0 -71 4 -6 5 -43 8 -83 6
l-71 -3 -5 -78 c-3 -58 -1 -79 9 -83 22 -8 158 -8 218 0 l56 8 2 -100 2 -99
-53 -6 c-29 -2 -61 -1 -71 5 -9 5 -50 8 -90 6 l-72 -3 -3 -79 c-2 -44 1 -82 7
-85 5 -3 68 -6 140 -6 100 0 132 -3 136 -13 3 -8 5 -51 5 -97 l0 -83 -51 -7
c-40 -6 -53 -4 -62 9 -9 12 -29 15 -87 13 l-75 -2 0 -84 0 -85 75 -4 c41 -2
103 -5 138 -5 l62 -1 0 -98 0 -98 -55 0 c-43 0 -55 3 -55 15 0 13 -14 15 -82
13 l-83 -3 -3 -86 -3 -86 63 -1 c95 -1 189 -13 182 -23 -3 -5 2 -9 11 -9 9 0
13 4 10 10 -3 5 -1 10 4 10 7 0 11 -36 11 -98 l0 -97 -47 4 c-26 2 -53 10 -61
18 -10 10 -35 13 -91 11 l-76 -3 -3 -53 -3 -52 460 0 c429 0 460 1 464 17 4
17 5 17 6 1 1 -11 9 -18 22 -18 19 0 20 4 15 43 -3 23 -5 43 -5 44 -2 3 -181
-6 -225 -12 -61 -9 -66 -2 -66 93 l0 72 43 0 c23 0 59 5 80 11 22 6 67 11 100
13 l62 2 3 64 c5 110 5 110 -91 109 -45 -1 -87 -5 -94 -11 -6 -5 -33 -8 -60
-6 l-48 3 -3 92 -3 93 49 0 c27 0 83 3 125 6 l77 7 0 61 c1 48 3 57 11 43 6
-10 8 -38 5 -63 -2 -24 -1 -44 3 -44 22 0 22 156 0 170 -4 3 -45 2 -91 -2 -46
-3 -107 -7 -136 -7 l-53 -1 3 92 3 92 115 4 c172 5 165 4 168 30 2 12 -1 22
-7 22 -6 0 -11 -7 -11 -15 0 -8 -4 -15 -8 -15 -8 0 -7 108 1 117 3 3 10 -10
16 -28 9 -33 9 -32 6 11 -2 25 -4 48 -4 51 -1 7 -156 3 -168 -4 -5 -3 -34 -3
-65 0 l-55 6 -2 87 c-1 65 1 87 11 88 7 1 69 3 136 5 126 4 149 11 137 45 -3
8 -5 39 -5 70 l0 57 -112 -3 c-62 -1 -128 0 -145 3 -30 5 -33 9 -33 40 0 19
-5 35 -11 35 -7 0 -9 -12 -5 -35 l7 -35 -51 0 c-32 0 -52 5 -55 13 -2 6 -6 51
-9 100 l-5 87 27 -1 c40 -1 57 -11 57 -34 0 -11 7 -27 16 -35 9 -8 19 -24 22
-35 2 -11 5 7 6 40 1 43 4 56 11 45 6 -10 10 -11 10 -3 0 9 10 11 33 7 51 -10
227 -11 233 -2 3 4 -5 8 -18 9 -23 1 -23 1 2 9 23 7 23 8 3 9 -25 1 -30 12
-25 57 4 36 22 47 22 14 0 -11 5 -20 11 -20 6 0 8 7 5 16 -3 9 -6 28 -6 43 l0
28 -145 -4 -145 -4 0 101 0 102 53 -6 c76 -10 85 -10 162 -7 39 1 64 5 58 8
-9 3 -13 26 -13 64 0 41 4 58 11 54 7 -5 9 3 7 21 l-3 27 -75 -3 c-84 -5 -118
-3 -240 7 l-85 8 0 98 0 98 45 -3 45 -3 5 -45 c4 -33 7 -40 13 -27 4 10 7 30
7 43 0 19 5 24 25 24 14 0 25 -4 25 -8 0 -12 183 -18 202 -6 4 3 4 26 1 53 -5
41 -2 52 15 66 41 36 18 44 -111 44 -67 -1 -156 3 -197 8 l-75 8 -3 98 -3 97
36 0 c33 0 35 -2 35 -32 0 -23 3 -29 9 -19 7 11 11 10 20 -5 9 -17 10 -15 11
14 0 30 2 32 35 32 19 0 35 -4 35 -9 0 -14 60 -20 125 -13 l60 7 -3 48 c-3 37
1 52 13 61 10 7 16 20 14 30 -4 16 -18 19 -122 22 -64 1 -121 5 -125 8 -5 3
-38 6 -75 7 l-67 2 1 99 c2 92 3 98 23 98 47 0 65 -12 69 -44 l4 -31 1 35 c2
35 2 36 44 31 24 -2 48 -10 54 -19 9 -12 24 -14 80 -8 38 4 77 8 87 8 16 -1
16 1 2 15 -19 19 -17 89 3 85 7 -1 12 10 12 30 l0 33 -87 0 c-49 1 -136 7
-195 15 l-108 14 0 98 0 99 33 -3 c30 -3 32 -6 38 -48 l6 -45 3 40 3 40 7 -40
7 -40 2 44 1 44 41 -6 c23 -3 51 -14 62 -25 22 -20 33 -20 125 -6 31 5 32 6
30 50 -1 28 4 49 11 53 18 11 10 67 -9 63 -38 -9 -111 -7 -165 4 -33 7 -90 15
-127 19 l-68 7 0 100 0 99 28 -4 c24 -3 28 -9 33 -48 l6 -44 3 45 3 45 7 -50
7 -50 1 48 2 49 43 -7 c23 -4 51 -15 62 -25 17 -15 32 -17 96 -13 l75 5 3 57
c1 31 3 67 4 80 2 24 1 25 -73 23 -41 -1 -128 6 -192 15 l-118 17 0 103 c0 76
3 103 13 103 29 0 57 -13 57 -27 0 -8 5 -11 10 -8 6 4 8 11 4 16 -12 20 100
-3 115 -23 11 -17 23 -19 95 -16 l81 4 0 79 0 80 -90 2 c-49 1 -134 7 -187 14
l-98 12 -1 66 c0 36 -2 74 -4 83 -2 9 -5 65 -6 123 l-4 107 160 3 c606 10
1020 16 1490 20 297 2 716 9 930 14 215 6 541 13 725 16 184 3 481 10 660 15
179 5 431 12 560 15 129 3 324 10 433 15 109 6 242 10 296 10 l98 0 6 -38 c4
-20 9 -179 12 -352 3 -173 7 -380 10 -460 5 -149 11 -368 20 -760 3 -124 8
-281 10 -350 3 -69 10 -298 15 -510 5 -212 12 -437 15 -500 2 -63 7 -257 10
-430 3 -173 8 -359 11 -414 5 -78 4 -98 -7 -94 -13 4 -18 52 -19 201 0 48 -4
87 -9 87 -9 0 -6 84 4 100 3 5 2 10 -2 10 -5 0 -9 39 -11 87 -1 49 -5 115 -9
148 -3 33 -7 115 -7 182 -1 66 -5 119 -9 116 -4 -3 -7 6 -5 19 1 12 -1 59 -5
103 -4 44 -9 130 -12 190 -7 142 -16 248 -22 259 -3 4 1 12 8 17 12 8 12 10 0
18 -9 6 -10 10 -2 16 8 4 9 11 2 18 -5 7 -10 50 -11 97 -3 125 -3 124 -14 132
-7 5 -7 8 -1 8 6 0 9 15 8 32 -1 18 -2 33 -3 33 -1 0 -3 50 -6 110 -6 147 -8
165 -16 165 -4 0 -6 47 -4 105 2 58 0 108 -5 111 -5 3 -9 13 -8 22 0 14 2 13
9 -3 8 -18 9 -17 9 8 1 15 -3 27 -8 27 -5 0 -9 24 -9 53 1 107 -2 151 -11 142
-4 -6 -5 -98 0 -205 4 -107 17 -422 28 -700 11 -278 23 -552 26 -610 7 -160
14 -322 25 -570 5 -124 12 -279 15 -345 9 -184 24 -616 32 -852 l6 -213 324 0
323 0 0 2665 0 2665 -4000 0 -4000 0 0 -50z m175 0 c-3 -5 -14 -10 -23 -10
-15 0 -15 2 -2 10 20 13 33 13 25 0z m1315 -5 c-119 -11 -160 -10 -160 4 0 4
64 7 143 7 l142 1 -125 -12z m-845 -5 c4 -6 -7 -10 -24 -10 -17 0 -31 5 -31
10 0 6 11 10 24 10 14 0 28 -4 31 -10z m132 4 c-3 -3 -12 -4 -19 -1 -8 3 -5 6
6 6 11 1 17 -2 13 -5z m518 -4 c4 -6 -7 -10 -27 -9 -31 1 -32 1 -8 9 14 4 26
8 27 9 1 1 5 -3 8 -9z m-308 -6 c-3 -3 -12 -4 -19 -1 -8 3 -5 6 6 6 11 1 17
-2 13 -5z m2880 -10 c-3 -3 -12 -4 -19 -1 -8 3 -5 6 6 6 11 1 17 -2 13 -5z
m-1540 -10 c-3 -3 -12 -4 -19 -1 -8 3 -5 6 6 6 11 1 17 -2 13 -5z m793 -10 c0
-2 -9 -4 -21 -4 -11 0 -18 4 -14 10 5 8 35 3 35 -6z m80 6 c0 -5 -2 -10 -4
-10 -3 0 -8 5 -11 10 -3 6 -1 10 4 10 6 0 11 -4 11 -10z m-363 -6 c-3 -3 -12
-4 -19 -1 -8 3 -5 6 6 6 11 1 17 -2 13 -5z m-1990 -10 c-3 -3 -12 -4 -19 -1
-8 3 -5 6 6 6 11 1 17 -2 13 -5z m1393 -19 c0 -11 8 -13 33 -8 17 3 34 6 37 5
3 0 25 0 50 -1 l45 -2 -38 -13 c-48 -18 -219 -16 -225 2 -5 15 -33 16 -29 1 1
-7 -26 -13 -75 -16 -53 -3 -78 -1 -78 6 0 7 26 11 68 11 44 0 62 3 53 9 -15
10 3 13 112 19 36 2 47 -1 47 -13z m-1152 -1 c-3 -3 -28 -7 -54 -10 -35 -3
-45 -1 -34 6 16 10 98 14 88 4z m607 -4 c3 -5 1 -10 -4 -10 -6 0 -11 5 -11 10
0 6 2 10 4 10 3 0 8 -4 11 -10z m-738 -6 c-3 -3 -12 -4 -19 -1 -8 3 -5 6 6 6
11 1 17 -2 13 -5z m916 -5 l52 -1 -60 -9 c-33 -5 -71 -7 -85 -3 -24 6 -24 7
-5 14 11 5 26 7 33 4 8 -2 37 -5 65 -5z m557 1 c0 -5 -4 -10 -10 -10 -5 0 -10
5 -10 10 0 6 5 10 10 10 6 0 10 -4 10 -10z m93 3 c-13 -2 -35 -2 -50 0 -16 2
-5 4 22 4 28 0 40 -2 28 -4z m-1644 -7 c-8 -8 -98 -10 -105 -3 -4 4 19 7 51 7
32 0 56 -2 54 -4z m676 -6 c-28 -12 -47 -12 -40 0 3 6 18 10 33 9 24 0 25 -1
7 -9z m-191 -9 c3 -4 -6 -6 -19 -3 -14 2 -25 6 -25 8 0 8 39 4 44 -5z m104 2
c-15 -2 -42 -2 -60 0 -18 2 -6 4 27 4 33 0 48 -2 33 -4z m-588 -13 c0 -5 -7
-7 -15 -4 -8 4 -15 8 -15 10 0 2 7 4 15 4 8 0 15 -4 15 -10z m1727 -46 c-3 -3
-12 -4 -19 -1 -8 3 -5 6 6 6 11 1 17 -2 13 -5z m-1510 -20 c-3 -3 -12 -4 -19
-1 -8 3 -5 6 6 6 11 1 17 -2 13 -5z m1088 -17 c13 -3 9 -5 -12 -6 -26 -1 -31
2 -26 15 3 9 9 11 12 6 3 -5 15 -12 26 -15z m-1525 3 c0 -5 -6 -10 -14 -10 -8
0 -18 5 -21 10 -3 6 3 10 14 10 12 0 21 -4 21 -10z m1680 0 c-14 -4 -43 -8
-65 -8 l-40 1 35 7 c19 4 49 8 65 8 29 0 29 0 5 -8z m-255 -10 c3 -5 1 -10 -4
-10 -6 0 -11 5 -11 10 0 6 2 10 4 10 3 0 8 -4 11 -10z m378 3 c-13 -2 -33 -2
-45 0 -13 2 -3 4 22 4 25 0 35 -2 23 -4z m-2308 -18 c6 -2 -14 -4 -43 -4 -29
-1 -51 3 -48 7 4 7 67 5 91 -3z m312 2 c-42 -7 -62 -6 -70 2 -8 8 7 11 59 10
l69 -2 -58 -10z m743 6 c0 -5 -18 -9 -40 -10 -22 0 -51 -8 -65 -17 -17 -11
-36 -14 -69 -10 -31 5 -46 3 -46 -5 0 -6 -5 -11 -12 -11 -6 0 -8 3 -5 7 4 3 2
12 -4 20 -9 10 -1 13 42 15 30 1 66 2 82 1 15 -1 27 3 27 8 0 5 20 9 45 9 25
0 45 -3 45 -7z m813 -1 c-14 -9 -71 -7 -80 2 -4 3 16 6 43 6 28 0 44 -4 37 -8z
m-178 -23 c-55 -11 -127 -11 -121 0 4 5 41 9 84 9 66 0 71 -2 37 -9z m-176
-15 c11 -11 -15 -16 -97 -19 -49 -1 -95 -5 -101 -9 -6 -4 -11 0 -11 10 0 12 7
15 30 12 17 -3 30 0 30 6 0 6 5 5 12 -2 14 -14 42 -16 33 -3 -10 17 88 22 104
5z m-879 -13 c53 -5 90 -15 90 -23 0 -6 -25 -7 -62 -4 -35 3 -99 8 -143 12
-44 4 -75 8 -70 10 22 8 160 19 165 13 3 -3 12 -7 20 -8z m83 12 c-7 -2 -21
-2 -30 0 -10 3 -4 5 12 5 17 0 24 -2 18 -5z m62 -3 c18 -8 17 -9 -7 -9 -16 -1
-28 4 -28 9 0 12 8 12 35 0z m1332 4 c-3 -3 -12 -4 -19 -1 -8 3 -5 6 6 6 11 1
17 -2 13 -5z m-867 -14 c0 -5 -4 -10 -9 -10 -6 0 -13 5 -16 10 -3 6 1 10 9 10
9 0 16 -4 16 -10z m-854 -25 c14 -13 13 -15 -3 -15 -11 0 -24 5 -31 12 -8 8
-15 8 -27 -2 -12 -10 -19 -10 -23 -3 -4 6 -18 13 -32 16 -14 2 3 5 38 6 45 1
68 -3 78 -14z m1312 8 c-10 -2 -28 -2 -40 0 -13 2 -5 4 17 4 22 1 32 -1 23 -4z
m-1188 -13 c11 -7 -3 -9 -45 -9 -52 1 -55 3 -25 9 51 11 53 11 70 0z m635 0
c-3 -5 -10 -10 -16 -10 -5 0 -9 5 -9 10 0 6 7 10 16 10 8 0 12 -4 9 -10z m270
-10 c-3 -5 -23 -10 -43 -10 -28 0 -33 3 -22 10 20 13 73 13 65 0z m410 0 c13
-5 -10 -9 -68 -11 -49 -2 -91 -1 -93 3 -3 4 24 9 58 11 35 2 68 4 73 4 6 1 19
-2 30 -7z m-995 -20 c0 -5 -2 -10 -4 -10 -3 0 -8 5 -11 10 -3 6 -1 10 4 10 6
0 11 -4 11 -10z m-561 -39 c17 -11 -71 -19 -97 -10 -11 4 -1 8 28 11 25 3 47
5 50 6 3 1 11 -2 19 -7z m76 -1 c4 -6 -6 -10 -22 -10 -22 0 -25 2 -13 10 19
12 27 12 35 0z m258 -37 c-24 -2 -62 -2 -85 0 -24 2 -5 4 42 4 47 0 66 -2 43
-4z m-445 -38 c3 -3 -25 -5 -62 -5 -37 0 -65 4 -62 8 5 9 115 6 124 -3z m2737
5 c4 -6 -9 -10 -32 -9 -34 1 -35 2 -13 9 35 11 38 11 45 0z m-2967 -17 c-10
-2 -26 -2 -35 0 -10 3 -2 5 17 5 19 0 27 -2 18 -5z m422 -18 c0 -6 -31 -9 -78
-8 -42 1 -96 -3 -119 -8 -23 -5 -63 -6 -90 -2 -44 7 -39 8 67 19 135 13 220
13 220 -1z m430 5 c0 -5 -21 -9 -47 -9 -47 2 -47 2 -13 9 52 11 60 11 60 0z
m-812 -27 c-10 -2 -26 -2 -35 0 -10 3 -2 5 17 5 19 0 27 -2 18 -5z m609 -29
c-3 -3 -12 -4 -19 -1 -8 3 -5 6 6 6 11 1 17 -2 13 -5z m1416 -31 c-7 -2 -19
-2 -25 0 -7 3 -2 5 12 5 14 0 19 -2 13 -5z m60 0 c-7 -2 -21 -2 -30 0 -10 3
-4 5 12 5 17 0 24 -2 18 -5z m-1342 -53 c27 -15 24 -28 -6 -22 -14 2 -25 11
-25 18 0 17 5 17 31 4z m-378 -17 c-7 -2 -21 -2 -30 0 -10 3 -4 5 12 5 17 0
24 -2 18 -5z m1237 -412 c0 -20 -34 -31 -96 -31 -27 0 -34 4 -34 19 0 22 16
28 83 30 40 1 47 -2 47 -18z m50 -1 c0 -11 -4 -20 -10 -20 -5 0 -10 9 -10 20
0 11 5 20 10 20 6 0 10 -9 10 -20z m148 -3 c3 -13 -4 -17 -27 -17 -36 0 -37 3
-15 25 19 19 38 15 42 -8z m156 5 c37 -5 51 -12 56 -28 8 -19 6 -20 -44 -13
-28 4 -72 8 -98 8 -41 1 -48 4 -48 21 0 17 6 20 43 19 23 0 64 -4 91 -7z
m-304 -172 c0 -64 -4 -100 -11 -100 -7 0 -9 34 -7 100 2 55 6 100 11 100 4 0
7 -45 7 -100z m146 2 c5 -100 2 -114 -21 -105 -12 4 -15 23 -12 99 2 60 0 95
-7 99 -6 2 0 3 13 2 22 -2 23 -6 27 -95z m-196 -176 c0 -18 -7 -25 -31 -30
-63 -12 -86 -8 -85 17 1 30 13 37 69 37 43 0 47 -2 47 -24z m50 -1 c0 -14 -4
-25 -10 -25 -5 0 -10 11 -10 25 0 14 5 25 10 25 6 0 10 -11 10 -25z m148 -3
c3 -16 -2 -22 -17 -22 -24 0 -35 15 -27 36 9 23 40 13 44 -14z m175 2 c22 -4
37 -11 37 -20 0 -8 7 -14 15 -14 8 0 15 -5 15 -11 0 -7 -9 -9 -22 -5 -13 3
-60 9 -105 12 -46 4 -83 10 -83 15 0 4 -3 15 -7 25 -6 15 0 16 53 10 32 -4 76
-9 97 -12z m-326 -263 c-16 -7 -18 8 -10 100 l8 94 5 -95 c3 -52 1 -97 -3 -99z
m153 94 c0 -85 -2 -95 -18 -95 -16 0 -18 10 -18 95 1 83 3 95 19 95 15 0 17
-11 17 -95z m-190 -174 c0 -26 -3 -29 -46 -35 -80 -11 -86 -9 -82 22 2 22 9
28 38 33 78 14 90 11 90 -20z m45 -1 c0 -16 -5 -30 -11 -30 -6 0 -10 12 -8 28
3 33 2 32 12 32 4 0 7 -13 7 -30z m150 0 c0 -20 -5 -25 -24 -25 -16 0 -25 6
-27 19 -4 28 5 38 29 34 16 -2 22 -10 22 -28z m196 4 c5 -3 7 -9 4 -14 -3 -4
6 -11 20 -14 14 -4 25 -11 25 -17 0 -8 -19 -9 -62 -4 -60 8 -83 10 -135 13
-18 2 -23 8 -23 28 l0 27 81 -7 c45 -3 86 -9 90 -12z m-351 -278 c-7 -7 -10
23 -9 95 l2 104 9 -94 c6 -63 5 -98 -2 -105z m160 94 l0 -101 -27 4 c-20 3
-27 9 -26 23 1 10 3 54 4 97 3 73 4 77 26 77 22 0 23 -2 23 -100z m-198 -180
c-4 -30 -5 -30 -66 -30 -43 0 -57 3 -46 10 11 7 12 10 2 10 -8 0 -12 8 -10 18
2 13 16 18 58 22 30 3 58 4 61 3 3 -1 4 -16 1 -33z m182 34 c10 -4 16 -18 16
-36 0 -26 -3 -29 -27 -26 -20 2 -27 9 -28 28 -1 14 3 28 9 32 14 9 11 9 30 2z
m-142 -29 c-2 -14 -6 -25 -8 -25 -2 0 -4 11 -4 25 0 14 4 25 9 25 4 0 6 -11 3
-25z m359 5 c10 -6 19 -15 19 -21 0 -6 5 -7 10 -4 9 6 27 -22 19 -29 -2 -2
-53 1 -114 8 l-110 11 -1 29 -1 28 79 -6 c44 -3 88 -11 99 -16z m-288 -57 c-7
-2 -19 -2 -25 0 -7 3 -2 5 12 5 14 0 19 -2 13 -5z m88 -80 c0 -27 2 -69 3 -95
2 -47 1 -48 -29 -48 -29 0 -30 1 -30 50 0 28 3 50 7 50 4 0 6 20 4 45 -2 41 0
45 21 45 21 0 23 -5 24 -47z m-151 -80 c0 -46 -3 -64 -10 -57 -10 10 -3 124 6
124 2 0 4 -30 4 -67z m-42 -140 c-3 -27 -6 -28 -66 -31 -62 -3 -64 -3 -56 20
9 32 22 38 77 38 47 0 48 -1 45 -27z m42 2 c0 -14 -2 -25 -4 -25 -2 0 -6 11
-8 25 -3 14 -1 25 3 25 5 0 9 -11 9 -25z m160 1 c0 -16 -7 -26 -22 -30 -26 -6
-37 2 -43 32 -3 19 1 22 31 22 29 0 34 -3 34 -24z m98 11 c6 0 12 -5 12 -11 0
-6 4 -5 9 3 10 15 91 6 91 -10 0 -5 6 -9 14 -9 13 0 31 -29 22 -37 -7 -8 -126
9 -121 18 3 4 1 10 -5 14 -5 3 -10 1 -10 -4 0 -6 -20 -11 -45 -11 -44 0 -45 1
-45 31 0 30 1 31 33 24 17 -4 38 -7 45 -8z m-105 -112 c4 -8 6 -51 6 -95 l0
-80 -29 0 -29 0 5 73 c3 39 5 82 5 95 -1 25 33 32 42 7z m-156 -147 c-2 -18
-4 -6 -4 27 0 33 2 48 4 33 2 -15 2 -42 0 -60z m-37 -108 c0 -30 -1 -30 -54
-30 -39 0 -55 4 -60 15 -12 33 4 45 60 45 53 0 54 0 54 -30z m37 -7 c-3 -10
-5 -4 -5 12 0 17 2 24 5 18 2 -7 2 -21 0 -30z m161 12 c2 -30 -21 -43 -43 -25
-26 22 -19 50 13 50 22 0 28 -5 30 -25z m95 15 c22 0 27 -4 27 -25 0 -23 -3
-25 -50 -25 -49 0 -50 0 -50 31 0 28 3 31 23 25 12 -3 34 -6 50 -6z m129 -23
c24 -10 44 -34 36 -42 -2 -2 -30 0 -62 3 -55 7 -59 9 -62 35 -3 27 -1 28 29
22 18 -4 44 -12 59 -18z m-225 -99 c0 -13 2 -54 3 -93 l4 -70 -30 -3 -29 -3 0
96 0 95 26 0 c19 0 25 -5 26 -22z m-160 -150 c-2 -13 -4 -5 -4 17 -1 22 1 32
4 23 2 -10 2 -28 0 -40z m60 -10 c-3 -7 -5 -2 -5 12 0 14 2 19 5 13 2 -7 2
-19 0 -25z m-95 -93 l-4 -35 -54 0 c-40 0 -54 4 -54 14 0 8 -3 21 -6 29 -7 18
12 24 76 26 l46 1 -4 -35z m206 -2 c3 -31 1 -33 -27 -33 -29 0 -31 3 -31 36 0
33 2 35 28 32 22 -2 28 -8 30 -35z m110 22 c6 -3 12 -9 12 -15 0 -6 -5 -8 -12
-4 -8 5 -9 0 -6 -14 6 -20 2 -22 -38 -22 -44 0 -44 0 -44 35 0 36 0 36 38 30
20 -4 43 -8 50 -10z m89 -8 c7 0 10 -4 7 -9 -3 -4 9 -8 25 -8 25 0 31 -4 31
-20 0 -19 -5 -21 -62 -18 l-63 3 0 32 c0 29 2 32 25 26 13 -4 30 -6 37 -6z
m-197 -197 l0 -100 -27 0 -28 0 0 100 -1 100 28 0 28 0 0 -100z m102 53 l1
-48 7 50 c6 42 7 45 9 15 0 -19 4 -65 8 -102 l6 -68 -57 0 -56 0 0 100 0 100
40 0 40 0 2 -47z m-212 -147 c-9 -8 -10 -1 -6 29 3 22 6 51 7 65 2 14 4 1 6
-29 3 -32 0 -58 -7 -65z m-63 17 c-3 -10 -5 -2 -5 17 0 19 2 27 5 18 2 -10 2
-26 0 -35z m-37 -98 c0 -24 -3 -25 -59 -25 -57 0 -58 1 -53 25 4 23 9 25 58
25 51 0 54 -1 54 -25z m110 15 c0 -5 -2 -10 -4 -10 -3 0 -8 5 -11 10 -3 6 -1
10 4 10 6 0 11 -4 11 -10z m92 -17 c-5 -25 -6 -25 -13 -8 -4 11 -8 16 -8 12
-1 -5 -6 -5 -11 -2 -15 9 -2 25 19 25 14 0 17 -6 13 -27z m51 6 c-4 -16 -2
-20 8 -17 8 3 13 13 13 22 -1 11 6 16 22 16 26 0 45 -21 25 -28 -11 -4 -11 -6
0 -13 9 -6 -5 -9 -38 -9 -50 0 -53 1 -53 25 0 15 6 25 14 25 9 0 12 -7 9 -21z
m155 5 c15 -2 36 -5 47 -7 11 -1 21 -10 23 -19 3 -16 -5 -18 -57 -18 l-61 0 0
31 c0 19 4 28 11 24 5 -4 22 -9 37 -11z m-204 -121 c-1 -21 -6 -49 -10 -62 -5
-17 -4 -22 4 -17 8 5 12 -5 12 -33 0 -37 -2 -41 -25 -41 -28 0 -32 20 -15 78
6 24 6 39 -3 53 -9 15 -8 21 8 35 17 13 17 15 3 10 -10 -3 -18 -1 -18 4 0 6
10 10 23 10 21 0 23 -4 21 -37z m-97 -95 c-3 -8 -6 -5 -6 6 -1 11 2 17 5 13 3
-3 4 -12 1 -19z m6 -38 c3 -11 1 -20 -4 -20 -5 0 -9 9 -9 20 0 11 2 20 4 20 2
0 6 -9 9 -20z m-103 -105 c0 -24 -3 -25 -59 -25 -56 0 -58 1 -58 25 0 24 2 25
58 25 56 0 59 -1 59 -25z m110 5 c0 -11 -2 -20 -4 -20 -2 0 -6 9 -9 20 -3 11
-1 20 4 20 5 0 9 -9 9 -20z m82 -5 c5 -21 2 -25 -20 -25 -20 0 -23 3 -14 12
15 15 16 31 0 22 -7 -4 -8 -3 -4 4 12 20 33 13 38 -13z m128 17 c-17 -8 -20
-33 -5 -45 6 -5 2 -6 -8 -3 -10 3 -32 6 -48 6 -24 0 -29 4 -29 25 0 24 3 25
53 24 28 0 45 -3 37 -7z m83 -15 c-4 -6 3 -8 20 -3 14 3 29 1 32 -4 4 -6 10
-8 14 -6 4 3 8 -5 8 -16 2 -16 -2 -19 -20 -14 -12 3 -39 6 -59 6 -35 0 -38 2
-38 29 0 25 3 28 25 23 14 -2 22 -9 18 -15z m218 -37 c-4 -23 -10 -30 -15 -22
-10 16 3 77 14 65 5 -4 5 -24 1 -43z m-330 -59 c-4 -4 -11 -29 -14 -57 -5 -49
-4 -52 19 -57 20 -3 24 0 24 20 0 15 5 23 13 21 7 -3 13 -27 14 -64 1 -32 -1
-51 -4 -42 -4 15 -7 16 -17 5 -8 -8 -29 -11 -55 -9 l-41 4 0 93 0 93 35 -1
c19 -1 31 -3 26 -6z m-114 -33 c-3 -8 -6 -5 -6 6 -1 11 2 17 5 13 3 -3 4 -12
1 -19z m22 -68 c-2 -74 -3 -80 -23 -80 -17 0 -21 6 -20 33 3 54 3 57 19 57 10
0 15 11 15 35 0 19 2 35 6 35 3 0 4 -36 3 -80z m111 64 c0 -8 -4 -12 -10 -9
-5 3 -10 10 -10 16 0 5 5 9 10 9 6 0 10 -7 10 -16z m-320 -224 c0 -29 -1 -30
-49 -30 -41 0 -51 4 -56 20 -10 31 2 40 56 40 48 0 49 -1 49 -30z m180 26 c0
-3 -4 -8 -10 -11 -5 -3 -10 -1 -10 4 0 6 5 11 10 11 6 0 10 -2 10 -4z m29 -33
c-1 -27 -3 -31 -6 -14 -4 19 -7 21 -14 10 -7 -11 -9 -11 -9 4 0 9 5 17 11 17
5 0 7 5 4 10 -3 6 -1 10 4 10 6 0 10 -17 10 -37z m121 7 c-6 -11 -8 -25 -5
-30 4 -6 -12 -10 -39 -10 -44 0 -46 1 -46 30 0 29 1 30 50 30 48 0 50 -1 40
-20z m70 11 c0 -6 21 -11 47 -13 36 -2 49 -7 51 -20 3 -16 -5 -18 -57 -18
l-61 0 0 30 c0 17 5 30 10 30 6 0 10 -4 10 -9z m-191 -138 c-2 -35 -2 -35 -6
-8 -3 16 -10 33 -16 37 -8 5 -6 8 6 8 13 0 17 -8 16 -37z m71 33 c0 -2 -7 -6
-15 -10 -8 -3 -15 -1 -15 4 0 6 7 10 15 10 8 0 15 -2 15 -4z m34 -32 c19 -7
11 -24 -10 -24 -8 0 -12 5 -9 10 3 6 0 10 -9 10 -15 0 -16 -16 -3 -38 5 -7 2
-14 -7 -18 -9 -3 -16 -10 -16 -16 0 -15 30 -41 38 -33 4 4 1 10 -5 12 -17 6
-17 23 0 23 7 0 19 -9 27 -21 14 -19 15 -18 21 23 6 40 6 38 7 -20 1 -40 -2
-61 -8 -57 -5 3 -10 1 -10 -4 0 -6 -18 -11 -40 -11 l-40 0 0 85 c0 83 1 85 24
85 13 0 31 -3 40 -6z m-102 -67 c2 -13 -1 -28 -8 -35 -10 -9 -12 -6 -9 16 2
15 4 30 4 35 2 15 9 6 13 -16z m155 -54 c-2 -16 -4 -5 -4 22 0 28 2 40 4 28 2
-13 2 -35 0 -50z m5285 -100 c3 -76 2 -142 -2 -146 -4 -4 -8 25 -8 65 -1 40
-6 88 -12 107 -6 22 -6 39 0 46 6 7 6 15 -2 23 -12 12 -4 42 11 42 5 0 11 -62
13 -137z m-5432 102 c0 -8 -4 -15 -10 -15 -5 0 -7 7 -4 15 4 8 8 15 10 15 2 0
4 -7 4 -15z m-17 -32 c-7 -2 -19 -2 -25 0 -7 3 -2 5 12 5 14 0 19 -2 13 -5z
m-193 -82 c0 -15 -5 -19 -24 -15 -14 2 -36 0 -50 -6 -26 -9 -46 3 -25 16 8 4
7 9 -2 15 -9 5 8 9 44 9 50 0 57 -2 57 -19z m293 12 c-37 -5 -42 -16 -15 -33
15 -9 14 -10 -8 -8 -17 2 -26 10 -28 26 -3 20 0 22 40 20 37 -1 38 -2 11 -5z
m109 -26 c7 3 29 9 50 13 33 6 38 5 38 -11 0 -16 -8 -19 -55 -19 -51 0 -55 2
-54 23 1 17 2 18 6 4 2 -9 9 -14 15 -10z m-117 -177 c-3 -5 -10 -10 -16 -10
-5 0 -9 5 -9 10 0 6 7 10 16 10 8 0 12 -4 9 -10z m5362 -112 c-2 -24 -4 -7 -4
37 0 44 2 63 4 43 2 -21 2 -57 0 -80z m-5300 40 c-2 -13 -4 -3 -4 22 0 25 2
35 4 23 2 -13 2 -33 0 -45z m-27 37 c0 -8 -4 -15 -10 -15 -5 0 -7 7 -4 15 4 8
8 15 10 15 2 0 4 -7 4 -15z m-45 -45 c3 -5 -1 -10 -10 -10 -9 0 -13 5 -10 10
3 6 8 10 10 10 2 0 7 -4 10 -10z m48 -7 c-7 -2 -19 -2 -25 0 -7 3 -2 5 12 5
14 0 19 -2 13 -5z m314 -90 c-3 -10 -5 -2 -5 17 0 19 2 27 5 18 2 -10 2 -26 0
-35z m-710 31 c-3 -3 -12 -4 -19 -1 -8 3 -5 6 6 6 11 1 17 -2 13 -5z m72 -21
c-1 -23 -2 -24 -6 -6 -2 13 -13 24 -26 26 -18 4 -17 5 6 6 23 1 27 -3 26 -26z
m501 -25 c0 -5 -25 -8 -55 -8 -42 0 -55 3 -55 15 0 8 5 15 11 15 5 0 7 -4 4
-10 -4 -6 5 -10 19 -10 14 0 26 4 26 9 0 25 49 14 50 -11z m5158 -3 c-3 -3 -9
2 -12 12 -6 14 -5 15 5 6 7 -7 10 -15 7 -18z"/>
<path d="M1060 5040 c0 -5 4 -10 9 -10 6 0 13 5 16 10 3 6 -1 10 -9 10 -9 0
-16 -4 -16 -10z"/>
<path d="M2128 2483 c6 -2 18 -2 25 0 6 3 1 5 -13 5 -14 0 -19 -2 -12 -5z"/>
<path d="M1926 1645 c4 -8 11 -15 16 -15 6 0 5 6 -2 15 -7 8 -14 15 -16 15 -2
0 -1 -7 2 -15z"/>
<path d="M2028 813 c7 -3 16 -2 19 1 4 3 -2 6 -13 5 -11 0 -14 -3 -6 -6z"/>
<path d="M7160 4650 c0 -30 7 -154 14 -274 8 -121 12 -225 9 -232 -2 -6 1 -15
7 -19 7 -5 8 44 4 170 -7 173 -7 177 16 207 17 23 19 30 7 25 -13 -5 -17 6
-23 60 -3 36 -13 78 -20 92 -13 25 -14 23 -14 -29z"/>
<path d="M1995 4380 c3 -5 8 -10 11 -10 2 0 4 5 4 10 0 6 -5 10 -11 10 -5 0
-7 -4 -4 -10z"/>
<path d="M7190 4083 c0 -13 5 -23 10 -23 13 0 13 11 0 30 -8 12 -10 11 -10 -7z"/>
<path d="M7194 3968 c3 -46 8 -167 12 -270 4 -103 11 -185 15 -182 8 4 6 108
-6 351 -2 34 -7 68 -11 74 -4 7 -2 15 4 17 9 3 9 9 1 24 -6 11 -9 31 -6 44 2
13 0 24 -5 24 -5 0 -7 -36 -4 -82z"/>
<path d="M2021 3694 c0 -11 3 -14 6 -6 3 7 2 16 -1 19 -3 4 -6 -2 -5 -13z"/>
<path d="M2032 3070 c0 -14 2 -19 5 -12 2 6 2 18 0 25 -3 6 -5 1 -5 -13z"/>
<path d="M2041 2644 c0 -11 3 -14 6 -6 3 7 2 16 -1 19 -3 4 -6 -2 -5 -13z"/>
<path d="M2945 2009 c-8 -11 123 -154 166 -182 l26 -17 13 45 c7 25 11 47 9
49 -10 10 -194 116 -201 116 -4 0 -10 -5 -13 -11z m194 -136 c1 -14 -25 -18
-31 -5 -1 4 -34 34 -73 66 -38 32 -72 63 -73 68 -2 4 37 -20 87 -54 49 -35 90
-69 90 -75z"/>
<path d="M3542 1668 c3 -41 2 -41 -39 -55 -43 -15 -43 -15 -43 -64 l0 -50 -32
3 c-31 3 -33 1 -31 -27 2 -21 12 -38 35 -55 18 -14 48 -41 67 -60 19 -19 31
-28 27 -20 -4 8 1 6 11 -6 10 -12 39 -35 65 -52 25 -18 56 -44 68 -59 12 -16
18 -21 14 -13 -5 10 -1 9 14 -4 12 -10 19 -23 16 -27 -3 -5 3 -6 13 -2 10 3
15 2 11 -2 -5 -5 2 -13 15 -20 12 -6 21 -16 20 -21 -1 -6 7 -16 19 -23 16 -10
19 -10 12 1 -4 7 11 -6 34 -30 23 -24 46 -41 52 -37 6 4 9 1 8 -7 -2 -7 6 -13
17 -13 13 0 19 -6 17 -17 -3 -20 83 -82 100 -72 7 4 8 3 4 -4 -4 -7 -2 -12 4
-12 6 0 32 -21 58 -47 25 -27 56 -53 67 -58 11 -6 20 -17 20 -25 0 -8 10 -16
21 -18 12 -2 26 -13 32 -25 6 -12 11 -16 11 -9 1 20 21 13 21 -8 0 -11 7 -20
15 -20 8 0 15 -5 15 -10 0 -6 11 -15 24 -20 13 -5 27 -18 31 -29 6 -21 39 -37
65 -33 13 3 13 2 0 -7 -12 -8 -11 -11 5 -17 10 -4 30 -19 42 -33 19 -22 22
-23 17 -6 -7 20 -7 20 9 0 10 -13 12 -22 5 -26 -15 -10 7 -20 26 -13 11 4 19
-2 26 -21 5 -14 14 -23 20 -20 5 3 10 1 10 -5 0 -6 11 -16 25 -22 14 -6 25
-17 25 -24 0 -7 6 -15 13 -18 10 -5 10 -7 0 -12 -24 -11 -13 -26 15 -20 15 3
21 3 15 0 -18 -8 -16 -24 2 -24 10 0 17 -14 21 -40 4 -22 10 -40 15 -40 5 0 9
4 9 9 0 5 12 6 28 2 15 -5 26 -13 24 -20 -3 -15 15 -14 21 2 3 6 6 2 6 -10 1
-13 5 -23 10 -23 5 0 9 -11 9 -25 0 -33 31 -68 55 -61 21 5 36 -22 18 -34 -20
-12 7 -47 42 -54 15 -3 26 -10 23 -15 -4 -5 -3 -16 0 -25 5 -14 52 -16 430
-16 285 0 424 3 424 10 0 6 -8 13 -17 16 -10 3 -26 10 -36 15 -10 5 -23 7 -29
3 -7 -4 -8 -3 -4 5 8 13 -16 41 -36 41 -7 0 -30 16 -50 36 -21 19 -42 32 -48
29 -5 -3 -7 0 -4 9 3 9 -2 17 -15 21 -12 3 -21 11 -21 16 0 5 -4 9 -9 9 -6 0
-27 16 -48 35 -21 19 -44 33 -51 30 -7 -3 -10 0 -7 5 4 6 -7 15 -24 21 -17 6
-31 16 -31 22 0 6 -3 7 -7 4 -8 -9 -34 13 -28 23 2 4 -12 16 -33 26 -49 25
-73 45 -66 55 3 5 -3 6 -12 2 -11 -4 -15 -2 -11 4 4 6 -14 21 -39 33 -26 14
-43 29 -40 36 3 7 -2 15 -10 18 -10 4 -13 1 -9 -7 4 -6 -4 0 -17 15 -13 15
-36 32 -51 37 -17 7 -25 15 -21 23 4 7 3 8 -5 4 -6 -4 -14 0 -17 8 -3 9 -11
16 -16 16 -5 0 -19 10 -30 23 -11 12 -16 15 -12 7 7 -13 5 -13 -9 -1 -9 7 -14
18 -10 24 4 6 1 7 -6 2 -8 -4 -23 3 -39 17 -15 14 -55 46 -90 72 -35 27 -59
52 -56 58 4 7 2 8 -4 4 -6 -4 -44 19 -84 52 -40 32 -91 71 -113 88 -22 16 -42
31 -45 34 -5 6 -166 131 -211 165 -14 11 -75 58 -134 105 -476 377 -562 440
-592 440 -23 0 -24 -3 -21 -42z"/>
<path d="M4595 380 c3 -5 8 -10 11 -10 2 0 4 5 4 10 0 6 -5 10 -11 10 -5 0 -7
-4 -4 -10z"/>
<path d="M4770 229 c0 -5 5 -7 10 -4 6 3 10 8 10 11 0 2 -4 4 -10 4 -5 0 -10
-5 -10 -11z"/>
<path d="M4785 190 c3 -5 8 -10 11 -10 2 0 4 5 4 10 0 6 -5 10 -11 10 -5 0 -7
-4 -4 -10z"/>
</g>
</svg>
